# xmcd
#
# Track frame offsets:
#	150
#	10370
#	22202
#	38002
#	49329
#	62944
#	76226
#	88348
#	100266
#	110411
#	121073
#	128826
#	141878
#	157940
#	168223
#	179985
#
# Disc length: 2536
#
# Revision: 3
# Processed by: cddbd v1.5.1PL0 Copyright (c) Steve Scherf et al.
# Submitted via: ExactAudioCopy v0.90a11
# Normalized: r1:TDELIM( - ),TSWAP
#
DISCID=db09e610
DTITLE=Various Artist - Country Love Deel 3
DYEAR=1900
DGENRE=
TTITLE0=Johnny Cash - If I Were A Carpenter
TTITLE1=Pasty Cline - Today Tomorrow And Forever
TTITLE2=Brenda Lee - You're The One That I Want
TTITLE3=Charlie Pride - It's Gonna Take A Little Bit Longer
TTITLE4=Willie Nelson - If You Got The Money Honey
TTITLE5=John Denver - Wispering Jesse
TTITLE6=Jim Reeves - For Walls
TTITLE7=Anne Murray - The Last THing On My Mind
TTITLE8=Don Gibson - See Of Heartbreek
TTITLE9=Roger Miller - King Of The Road
TTITLE10=Jim Reeves - Blue Boy
TTITLE11=George Jones - Hello Darlin
TTITLE12=Brenda Lee - Comming On Strong
TTITLE13=Loretta Lynn - Out Of My Head And Back In My Bed
TTITLE14=Jack Greene - There Goes My Everything
TTITLE15=Brenda Lee - I'm Sorry
EXTD=
EXTT0=
EXTT1=
EXTT2=
EXTT3=
EXTT4=
EXTT5=
EXTT6=
EXTT7=
EXTT8=
EXTT9=
EXTT10=
EXTT11=
EXTT12=
EXTT13=
EXTT14=
EXTT15=
PLAYORDER=
